<?xml version="1.0" encoding="UTF-8" standalone="no"?><!DOCTYPE svg PUBLIC "-//W3C//DTD SVG 1.1//EN" "http://www.w3.org/Graphics/SVG/1.1/DTD/svg11.dtd"><svg width="100%" height="100%" viewBox="0 0 540 540" version="1.1" xmlns="http://www.w3.org/2000/svg" xmlns:xlink="http://www.w3.org/1999/xlink" xml:space="preserve" xmlns:serif="http://www.serif.com/" style="fill-rule:evenodd;clip-rule:evenodd;stroke-linejoin:round;stroke-miterlimit:2;"><path id="Icon" d="M270,25.371l227.415,113.708l-227.415,113.707l-227.415,-113.707l227.415,-113.708Zm-80.987,73.214l35.36,34.7l-55.075,27.537l76.929,-6.092l35.361,34.7l12.185,-38.465l76.929,-6.092l-69.399,-17.681l12.184,-38.464l-55.075,27.537l-69.399,-17.68Zm75.902,161.786l-0,254.258l-227.415,-113.708l-0,-254.257l227.415,113.707Zm-37.903,108.178c0,-37.421 -33.967,-84.786 -75.805,-105.705c-41.837,-20.919 -75.805,-7.521 -75.805,29.9c0,22.114 12.058,48.868 32.307,71.682l-9.565,41.392l33.422,-19.506c6.406,4.74 13.009,8.82 19.641,12.136c41.838,20.919 75.805,7.522 75.805,-29.899Zm275.488,-221.885l0,254.257l-227.415,113.708l0,-254.258l227.415,-113.707Zm-113.708,141.822c-15.959,-25.921 -47.876,-9.962 -63.835,14.968c-15.959,24.93 -15.959,58.831 -0,84.752c11.171,19.84 39.897,30.903 63.835,35.884c23.939,-28.92 52.665,-68.708 63.836,-99.72c15.96,-41.88 15.96,-75.781 0,-84.752c-15.959,-8.971 -47.877,6.988 -63.836,48.868Z"/></svg>