<?xml version="1.0" encoding="UTF-8" standalone="no"?><!DOCTYPE svg PUBLIC "-//W3C//DTD SVG 1.1//EN" "http://www.w3.org/Graphics/SVG/1.1/DTD/svg11.dtd"><svg width="100%" height="100%" viewBox="0 0 2250 2250" version="1.1" xmlns="http://www.w3.org/2000/svg" xmlns:xlink="http://www.w3.org/1999/xlink" xml:space="preserve" xmlns:serif="http://www.serif.com/" style="fill-rule:evenodd;clip-rule:evenodd;stroke-linecap:round;stroke-linejoin:round;stroke-miterlimit:1.5;"><g><g><path d="M393.535,581.872l293.837,412.621l437.628,-543.91l437.628,543.91l312.592,-437.628c43.665,-48.965 68.77,-62.519 150.044,-68.771l198.713,0c2.727,0 5.233,1.504 6.517,3.911c1.283,2.407 1.136,5.325 -0.384,7.59c-73.198,109.093 -642.474,957.534 -642.474,957.534l-462.636,-568.917l-462.636,568.917c0,-0 -580.217,-864.748 -644.437,-960.46c-1.133,-1.689 -1.243,-3.864 -0.286,-5.659c0.957,-1.795 2.825,-2.916 4.859,-2.916c42.571,0 202.236,0 202.236,0c87.526,0 125.037,37.511 168.799,93.778Z" style="fill:#fff;stroke:#000;stroke-width:2.08px;"/><path d="M1125,1200.8l-343.851,425.125c206.311,231.318 481.391,231.318 681.45,0l-337.599,-425.125Z" style="fill:#0ef;stroke:#000;stroke-width:2.08px;"/></g></g></svg>